<?xml version="1.0" encoding="utf-8"?>
<!-- Generator: Adobe Illustrator 19.0.0, SVG Export Plug-In . SVG Version: 6.00 Build 0)  -->
<svg version="1.1" id="图层_1" xmlns="http://www.w3.org/2000/svg" xmlns:xlink="http://www.w3.org/1999/xlink" x="0px" y="0px"
	 viewBox="0 0 62 62" style="enable-background:new 0 0 62 62;" xml:space="preserve">
<style type="text/css">
	.st0{fill:#B2B2B2;}
</style>
<g id="XMLID_1887_">
	<path id="XMLID_1889_" class="st0" d="M31,62C13.9,62,0,48.1,0,31S13.9,0,31,0s31,13.9,31,31S48.1,62,31,62z M31,1
		C14.5,1,1,14.5,1,31s13.5,30,30,30s30-13.5,30-30S47.5,1,31,1z"/>
	<path id="XMLID_1888_" class="st0" d="M47,29H33V15c0-0.3-0.2-0.5-0.5-0.5h-3c-0.3,0-0.5,0.2-0.5,0.5v14H15c-0.3,0-0.5,0.2-0.5,0.5
		v3c0,0.3,0.2,0.5,0.5,0.5h14v14c0,0.3,0.2,0.5,0.5,0.5h3c0.3,0,0.5-0.2,0.5-0.5V33h14c0.3,0,0.5-0.2,0.5-0.5v-3
		C47.5,29.2,47.3,29,47,29z"/>
</g>
</svg>
